
<!-- Generator: visioncortex VTracer 0.6.4 -->
<svg version="1.1" xmlns="http://www.w3.org/2000/svg" viewBox="0 0 100 100" preserveAspectRatio="xMidYMid meet">
<path d="M0 0 C9.407 5.685 15.687 13.836 18.547 24.539 C19.818 35.18 19.084 45.143 13.547 54.539 C12.557 55.529 12.557 55.529 11.547 56.539 C13.032 57.034 13.032 57.034 14.547 57.539 C14.547 58.859 14.547 60.179 14.547 61.539 C13.227 61.539 11.907 61.539 10.547 61.539 C10.217 60.879 9.887 60.219 9.547 59.539 C9.013 59.998 8.48 60.457 7.93 60.93 C-2.562 69.57 -11.916 71.835 -25.314 70.81 C-34.874 69.6 -42.88 64.23 -48.828 56.828 C-51.453 53.091 -51.453 53.091 -51.453 50.539 C-52.258 50.56 -53.062 50.58 -53.891 50.602 C-56.453 50.539 -56.453 50.539 -57.453 49.539 C-57.578 46.539 -57.578 46.539 -57.453 43.539 C-56.958 43.044 -56.958 43.044 -56.453 42.539 C-56.377 40.58 -56.306 38.62 -56.265 36.66 C-55.967 24.965 -53.821 15.035 -45.477 6.289 C-32.879 -4.606 -15.108 -7.47 0 0 Z " fill="#CDE0F2" transform="translate(68.453125,16.4609375)"/>
<path d="M0 0 C3.717 2.944 4.518 7.058 5.812 11.438 C6.065 12.268 6.317 13.099 6.576 13.956 C7.111 15.722 7.643 17.49 8.171 19.258 C9.007 22.024 9.878 24.776 10.758 27.527 C11.318 29.31 11.878 31.092 12.438 32.875 C12.709 33.712 12.98 34.549 13.259 35.412 C15.619 43.075 15.619 43.075 14 47 C10.787 49.142 9.733 49.653 6 49 C3.006 45.386 3 43.875 3 39 C-1.29 39 -5.58 39 -10 39 C-10.289 40.279 -10.578 41.558 -10.875 42.875 C-11.541 45.825 -11.802 46.802 -14 49 C-17.053 48.805 -19.231 48.562 -21.73 46.734 C-23 45 -23 45 -22.961 42.871 C-22.768 42.068 -22.574 41.265 -22.375 40.438 C-22.162 39.543 -21.95 38.648 -21.73 37.727 C-19.547 29.576 -16.892 21.602 -14.184 13.613 C-13.377 11.15 -12.636 8.665 -11.953 6.164 C-11 3 -11 3 -9.312 1.062 C-6.039 -0.442 -3.555 -0.388 0 0 Z " fill="#7F9A43" transform="translate(54,26)"/>
<path d="M0 0 C1.188 3.429 0.802 5.378 -0.438 8.75 C-0.869 9.949 -0.869 9.949 -1.309 11.172 C-1.651 12.077 -1.651 12.077 -2 13 C-2.33 13 -2.66 13 -3 13 C-2.451 8.429 -1.583 4.326 0 0 Z M-4 13 C-3.67 13 -3.34 13 -3 13 C-3.605 19.064 -4.863 24.655 -6.562 30.5 C-6.796 31.322 -7.03 32.145 -7.271 32.992 C-7.842 34.996 -8.42 36.998 -9 39 C-6.69 39 -4.38 39 -2 39 C-1.01 36.03 -0.02 33.06 1 30 C5.62 30 10.24 30 15 30 C15.33 31.65 15.66 33.3 16 35 C15.67 34.01 15.34 33.02 15 32 C10.71 32 6.42 32 2 32 C1.711 33.279 1.422 34.558 1.125 35.875 C0.459 38.825 0.198 39.802 -2 42 C-5.053 41.805 -7.231 41.562 -9.73 39.734 C-11 38 -11 38 -10.961 35.871 C-10.768 35.068 -10.574 34.265 -10.375 33.438 C-10.166 32.556 -9.957 31.674 -9.742 30.766 C-8.124 24.734 -6.488 18.742 -4 13 Z " fill="#5E5141" transform="translate(42,33)"/>
<path d="M0 0 C0.66 0 1.32 0 2 0 C2.675 2.06 3.34 4.123 4 6.188 C4.371 7.336 4.742 8.485 5.125 9.668 C6 13 6 13 6 18 C2.7 18 -0.6 18 -4 18 C-3.416 11.696 -1.959 6.013 0 0 Z " fill="#584839" transform="translate(49,39)"/>
<path d="M0 0 C3 0.125 3 0.125 4 1.125 C4.125 4.125 4.125 4.125 4 7.125 C3 8.125 3 8.125 0 8.25 C-3 8.125 -3 8.125 -4 7.125 C-4.125 4.125 -4.125 4.125 -4 1.125 C-3 0.125 -3 0.125 0 0 Z " fill="#F1B419" transform="translate(83,10.875)"/>
<path d="M0 0 C2.562 0.188 2.562 0.188 4.562 2.188 C4.007 6.743 4.007 6.743 2.562 8.188 C0.062 8.312 0.062 8.312 -2.438 8.188 C-3.438 7.188 -3.438 7.188 -3.562 4.188 C-3.399 0.261 -3.399 0.261 0 0 Z " fill="#FACE5C" transform="translate(14.4375,58.8125)"/>
<path d="M0 0 C0.66 0 1.32 0 2 0 C2.99 3.96 3.98 7.92 5 12 C2.69 12 0.38 12 -2 12 C-1.858 10.562 -1.711 9.125 -1.562 7.688 C-1.481 6.887 -1.4 6.086 -1.316 5.262 C-1 3 -1 3 0 0 Z " fill="#BDCADB" transform="translate(49,44)"/>
<path d="M0 0 C4.62 0 9.24 0 14 0 C14.33 1.65 14.66 3.3 15 5 C14.67 4.01 14.34 3.02 14 2 C9.71 2 5.42 2 1 2 C0.34 4.64 -0.32 7.28 -1 10 C-1.99 10 -2.98 10 -4 10 C-2.68 6.7 -1.36 3.4 0 0 Z " fill="#584A38" transform="translate(43,63)"/>
<path d="M0 0 C1.279 -0.062 2.557 -0.124 3.875 -0.188 C4.954 -0.24 4.954 -0.24 6.055 -0.293 C6.697 -0.196 7.339 -0.1 8 0 C8.66 0.99 9.32 1.98 10 3 C7.03 3 4.06 3 1 3 C0.67 3.66 0.34 4.32 0 5 C-0.66 4.67 -1.32 4.34 -2 4 C-1.34 2.68 -0.68 1.36 0 0 Z " fill="#7B9340" transform="translate(46,28)"/>
<path d="M0 0 C1.98 0.495 1.98 0.495 4 1 C3.67 2.32 3.34 3.64 3 5 C1.68 4.67 0.36 4.34 -1 4 C-0.67 2.68 -0.34 1.36 0 0 Z " fill="#FBFDFE" transform="translate(17,51)"/>
<path d="M0 0 C1.32 0 2.64 0 4 0 C4 1.32 4 2.64 4 4 C2.68 4 1.36 4 0 4 C0 2.68 0 1.36 0 0 Z " fill="#77A2CE" transform="translate(23,85)"/>
<path d="M0 0 C1.32 0 2.64 0 4 0 C4 1.32 4 2.64 4 4 C2.68 4 1.36 4 0 4 C0 2.68 0 1.36 0 0 Z " fill="#FACE5C" transform="translate(79,74)"/>
<path d="M0 0 C1.32 0 2.64 0 4 0 C4 1.32 4 2.64 4 4 C2.68 4 1.36 4 0 4 C0 2.68 0 1.36 0 0 Z " fill="#77A2CE" transform="translate(11,27)"/>
<path d="M0 0 C1.32 0 2.64 0 4 0 C4 1.32 4 2.64 4 4 C2.68 4 1.36 4 0 4 C0 2.68 0 1.36 0 0 Z " fill="#77A2CE" transform="translate(85,22)"/>
<path d="M0 0 C0.66 0 1.32 0 2 0 C2 0.66 2 1.32 2 2 C1.34 2 0.68 2 0 2 C0 1.34 0 0.68 0 0 Z " fill="#F1B419" transform="translate(76,12)"/>
</svg>